<svg width="232" height="285" viewBox="0 0 232 285" fill="none" xmlns="http://www.w3.org/2000/svg">
<path d="M99.916 7.48602L97.479 6.07724L95.042 7.48602L10.6228 56.2873L8.18579 57.6961V60.5137V158.116V160.934L10.6228 162.343L95.042 211.144L97.479 212.553L99.916 211.144L184.335 162.343L186.772 160.934V158.116V60.5137V57.6961L184.335 56.2873L99.916 7.48602Z" stroke="#00FF94" stroke-width="10"/>
<path d="M136.958 7.48602L134.521 6.07724L132.084 7.48602L47.6648 56.2873L45.2278 57.6961V60.5137V158.116V160.934L47.6648 162.343L132.084 211.144L134.521 212.553L136.958 211.144L221.377 162.343L223.814 160.934V158.116V60.5137V57.6961L221.377 56.2873L136.958 7.48602Z" stroke="#00FF94" stroke-width="10"/>
<path d="M118.437 75.8078L116 74.399L113.563 75.8078L29.9878 124.121L27.5508 125.53V128.348V224.974V227.791L29.9878 229.201L113.563 277.514L116 278.923L118.437 277.514L202.011 229.201L204.448 227.791V224.974V128.348V125.53L202.011 124.121L118.437 75.8078Z" stroke="#00FF94" stroke-width="10"/>
</svg>
